<?xml version="1.0" encoding="UTF-8"?>
<svg version="1.1" xmlns="http://www.w3.org/2000/svg" width="100" height="100">
<path d="M0 0 C33 0 66 0 100 0 C100 33 100 66 100 100 C67 100 34 100 0 100 C0 67 0 34 0 0 Z " fill="#294A2F" transform="translate(0,0)"/>
<path d="M0 0 C3.85698362 1.08477664 6.09413462 2.92353001 8.9375 5.625 C11.77291354 8.22368072 12.56430754 8.94553844 16.5 9.4375 C17.325 9.293125 18.15 9.14875 19 9 C18.030625 8.401875 17.06125 7.80375 16.0625 7.1875 C13 5 13 5 12 2 C16.33589841 1.82302455 20.12598936 1.73614773 24.3125 3 C32.17303485 5.13167047 39.3758483 4.52013976 46.921875 1.68359375 C53.40260008 -0.44822371 58.3576772 1.22805918 64.3125 4.125 C64.869375 4.41375 65.42625 4.7025 66 5 C66 5.99 66 6.98 66 8 C61.01719216 10.28324485 56.21667315 11.86374912 50.875 13.0625 C50.12637695 13.23168945 49.37775391 13.40087891 48.60644531 13.57519531 C46.4068134 14.06285399 44.2044309 14.53457412 42 15 C40.92492188 15.23074219 39.84984375 15.46148437 38.7421875 15.69921875 C31.83485471 16.97067296 25.00471415 17.19970974 18 17.25 C16.63633301 17.26401855 16.63633301 17.26401855 15.24511719 17.27832031 C10.73252389 17.25645534 7.09177267 17.14818065 3 15 C3 14.34 3 13.68 3 13 C3.66 13 4.32 13 5 13 C4.6390625 12.48050781 4.278125 11.96101563 3.90625 11.42578125 C-0.7029877 4.49912127 -0.7029877 4.49912127 0 0 Z " fill="#F6F8F6" transform="translate(17,40)"/>
<path d="M0 0 C1.32 0 2.64 0 4 0 C3.15360526 8.46394741 -0.33448321 14.13505354 -6.83984375 19.4609375 C-16.477631 26.32764306 -26.48306571 26.97640751 -38 26 C-47.66483484 23.82865737 -53.5333407 18.14733935 -58.8984375 10.0859375 C-60 8 -60 8 -60 5 C-57.45852609 5.37550685 -56.27812133 5.68757953 -54.54296875 7.63671875 C-54.09566406 8.31347656 -53.64835937 8.99023438 -53.1875 9.6875 C-49.51089443 14.83290026 -45.76171265 18.76004738 -39.9375 21.375 C-28.72354884 23.15499225 -19.0509539 22.68617244 -9.4609375 16.3125 C-6.40054994 13.43670724 -4.92465859 10.52343058 -3.1875 6.75 C-2.87619141 6.1003125 -2.56488281 5.450625 -2.24414062 4.78125 C-1.48494554 3.19278029 -0.74089481 1.59708737 0 0 Z " fill="#EEF0EE" transform="translate(78,54)"/>
<path d="M0 0 C7.06072255 4.51802187 11.4643263 11.04139272 14.625 18.6796875 C14.625 19.6696875 14.625 20.6596875 14.625 21.6796875 C13.305 21.6796875 11.985 21.6796875 10.625 21.6796875 C10.26148438 20.87144531 9.89796875 20.06320313 9.5234375 19.23046875 C5.30513137 10.26386418 1.88282192 5.70482747 -7.375 1.6796875 C-14.82316326 -0.6602222 -23.79320354 -0.54040812 -30.875 2.7421875 C-37.89132763 6.83216502 -41.61650126 12.17044092 -44.375 19.6796875 C-46.025 19.6796875 -47.675 19.6796875 -49.375 19.6796875 C-46.75184788 10.49865507 -41.25032472 4.27016372 -33.1953125 -0.65234375 C-22.89319357 -5.56059233 -10.15061338 -4.88222437 0 0 Z " fill="#F1F3F1" transform="translate(66.375,18.3203125)"/>
</svg>
