<?xml version="1.0" encoding="UTF-8"?>
<svg version="1.1" xmlns="http://www.w3.org/2000/svg" width="164" height="100">
<path d="M0 0 C54.12 0 108.24 0 164 0 C164 33 164 66 164 100 C109.88 100 55.76 100 0 100 C0 67 0 34 0 0 Z " fill="#28492E" transform="translate(0,0)"/>
<path d="M0 0 C3.85698362 1.08477664 6.09413462 2.92353001 8.9375 5.625 C11.77291354 8.22368072 12.56430754 8.94553844 16.5 9.4375 C17.325 9.293125 18.15 9.14875 19 9 C18.030625 8.401875 17.06125 7.80375 16.0625 7.1875 C13 5 13 5 12 2 C16.33589841 1.82302455 20.12598936 1.73614773 24.3125 3 C32.17303485 5.13167047 39.3758483 4.52013976 46.921875 1.68359375 C53.40260008 -0.44822371 58.3576772 1.22805918 64.3125 4.125 C64.869375 4.41375 65.42625 4.7025 66 5 C66 5.99 66 6.98 66 8 C61.01719216 10.28324485 56.21667315 11.86374912 50.875 13.0625 C50.12637695 13.23168945 49.37775391 13.40087891 48.60644531 13.57519531 C46.4068134 14.06285399 44.2044309 14.53457412 42 15 C40.92492187 15.23074219 39.84984375 15.46148437 38.7421875 15.69921875 C31.83485471 16.97067296 25.00471415 17.19970974 18 17.25 C16.63633301 17.26401855 16.63633301 17.26401855 15.24511719 17.27832031 C10.73252389 17.25645534 7.09177267 17.14818065 3 15 C3 14.34 3 13.68 3 13 C3.66 13 4.32 13 5 13 C4.6390625 12.48050781 4.278125 11.96101563 3.90625 11.42578125 C-0.7029877 4.49912127 -0.7029877 4.49912127 0 0 Z " fill="#F6F7F6" transform="translate(51,40)"/>
<path d="M0 0 C1.32 0 2.64 0 4 0 C3.28141861 7.18581393 0.68896128 12.73735207 -4.5625 17.6875 C-10.5722344 22.59638586 -18.1720723 26.47813815 -26 27 C-27.2375 27.0825 -28.475 27.165 -29.75 27.25 C-38.43881108 27.08449884 -46.52773111 23.75578156 -53 18 C-60 9.70848708 -60 9.70848708 -60 5 C-57.45852609 5.37550685 -56.27812133 5.68757953 -54.54296875 7.63671875 C-54.09566406 8.31347656 -53.64835937 8.99023438 -53.1875 9.6875 C-49.51089443 14.83290026 -45.76171265 18.76004738 -39.9375 21.375 C-28.72354884 23.15499225 -19.0509539 22.68617244 -9.4609375 16.3125 C-6.40054994 13.43670724 -4.92465859 10.52343058 -3.1875 6.75 C-2.87619141 6.1003125 -2.56488281 5.450625 -2.24414062 4.78125 C-1.48494554 3.19278029 -0.74089481 1.59708737 0 0 Z " fill="#EDEFED" transform="translate(112,54)"/>
<path d="M0 0 C5.52784454 4.77446015 9.22189453 10.28624511 12 17 C12 17.99 12 18.98 12 20 C10.68 20 9.36 20 8 20 C7.63648438 19.19175781 7.27296875 18.38351563 6.8984375 17.55078125 C2.68013137 8.58417668 -0.74217808 4.02513997 -10 0 C-17.44816326 -2.3399097 -26.41820354 -2.22009562 -33.5 1.0625 C-40.51632763 5.15247752 -44.24150126 10.49075342 -47 18 C-48.65 18 -50.3 18 -52 18 C-49.2652812 8.4284842 -43.26599055 2.0976415 -34.8125 -2.875 C-23.70672276 -7.3173109 -10.08483535 -6.36781087 0 0 Z " fill="#F2F4F2" transform="translate(103,20)"/>
<path d="M0 0 C0.99 1.32 1.98 2.64 3 4 C6.7107009 8.22607603 9.83653166 10.07635493 15 12 C15 12.33 15 12.66 15 13 C10.05 13 5.1 13 0 13 C0 8.71 0 4.42 0 0 Z " fill="#000000" transform="translate(0,87)"/>
<path d="M0 0 C0.33 0 0.66 0 1 0 C1 3.96 1 7.92 1 12 C-3.95 12 -8.9 12 -14 12 C-12.68 11.34 -11.36 10.68 -10 10 C-5.30110557 7.25897825 -2.83732992 4.62379691 0 0 Z " fill="#000000" transform="translate(163,88)"/>
<path d="M0 0 C3.96 0 7.92 0 12 0 C11.2575 0.5775 10.515 1.155 9.75 1.75 C5.88993821 4.90823237 3.00377699 7.99496402 0 12 C0 8.04 0 4.08 0 0 Z " fill="#000000" transform="translate(0,0)"/>
<path d="M0 0 C3.63 0 7.26 0 11 0 C11 3.63 11 7.26 11 11 C10.443125 10.2575 9.88625 9.515 9.3125 8.75 C7.06272213 6.07458848 4.7690826 4.11324725 2 2 C1.34 1.34 0.68 0.68 0 0 Z " fill="#000000" transform="translate(153,0)"/>
</svg>
